<?xml version="1.0" encoding="UTF-8"?>
<svg version="1.1" xmlns="http://www.w3.org/2000/svg" width="1024" height="1024">
<path d="M0 0 C2.28769584 -0.00302633 4.57539066 -0.00691821 6.86308372 -0.01159257 C13.1039718 -0.02181938 19.34480209 -0.01970437 25.58569479 -0.01541197 C31.6397631 -0.01318996 37.69381621 -0.02037002 43.74787934 -0.02717223 C57.64689236 -0.04236123 71.54588708 -0.04412253 85.44490667 -0.0416492 C96.18369037 -0.03981188 106.92246811 -0.04158534 117.66125107 -0.04587364 C119.2076726 -0.04647606 120.75409414 -0.04707726 122.30051567 -0.04767724 C124.63124289 -0.04858456 126.96197011 -0.04949324 129.29269732 -0.0504096 C150.94542746 -0.0588316 172.59815537 -0.06318007 194.25088692 -0.05900288 C195.47367779 -0.05876831 195.47367779 -0.05876831 196.7211715 -0.05852901 C200.85227038 -0.05772331 204.98336925 -0.05687753 209.11446811 -0.05601571 C209.93481877 -0.05584462 210.75516944 -0.05567353 211.60037921 -0.05549726 C213.25932546 -0.0551506 214.91827171 -0.05480207 216.57721796 -0.05445167 C242.37936285 -0.04909678 268.18147355 -0.05702138 293.98361206 -0.07548523 C323.01828698 -0.09623826 352.05294073 -0.10692159 381.08762348 -0.10290974 C384.18834805 -0.10251444 387.28907263 -0.10215289 390.38979721 -0.10181236 C391.15319057 -0.10172163 391.91658393 -0.1016309 392.70311042 -0.10153742 C404.18737844 -0.10037532 415.67162495 -0.10699015 427.1558876 -0.11762428 C440.23007721 -0.12971881 453.3042197 -0.1311866 466.37841006 -0.11883412 C473.04060924 -0.11282002 479.70273644 -0.11178944 486.36493492 -0.12383652 C492.47932843 -0.1347639 498.59355409 -0.13151121 504.70793997 -0.11757483 C506.90431501 -0.11494663 509.10070351 -0.11723438 511.29706527 -0.1253107 C530.57287203 -0.19119601 549.8230925 1.30633656 568.61447144 5.82319641 C570.19458008 6.1978302 570.19458008 6.1978302 571.80661011 6.58003235 C606.66288986 15.21427387 638.55802035 30.285121 666.92697144 52.26069641 C667.825448 52.94647766 668.72392456 53.63225891 669.64962769 54.33882141 C685.48269728 66.68409913 700.76597762 81.27327778 712.92697144 97.26069641 C713.54402954 98.05516174 713.54402954 98.05516174 714.17355347 98.86567688 C722.36738073 109.44217089 729.26216349 120.67343434 735.92697144 132.26069641 C736.49327271 133.22628479 736.49327271 133.22628479 737.0710144 134.21138 C758.78071347 171.37993477 767.26792207 214.69916273 767.18766785 257.25816345 C767.19069359 259.54983372 767.19458518 261.84150299 767.19926041 264.13317049 C767.2094948 270.38965004 767.20737025 276.646072 767.20307982 282.90255618 C767.20085899 288.97023155 767.2080361 295.03788987 767.21484007 301.1055606 C767.23003434 315.03717986 767.23178982 328.96878086 767.22931705 342.90040667 C767.22748017 353.66401312 767.22925226 364.42761363 767.23354149 375.19121933 C767.23414391 376.74087276 767.2347451 378.29052619 767.23534509 379.84017961 C767.23625241 382.17574082 767.23716108 384.51130202 767.23807744 386.84686322 C767.24650026 408.54639046 767.25084736 430.24591546 767.24667072 451.94544411 C767.24651435 452.76251212 767.24635797 453.57958012 767.24619686 454.42140777 C767.24539115 458.56206198 767.24454537 462.70271619 767.24368355 466.84337039 C767.24351247 467.66562753 767.24334138 468.48788467 767.24316511 469.33505869 C767.24281845 470.99786063 767.24246992 472.66066257 767.24211952 474.32346451 C767.23676457 500.18585608 767.24468907 526.04821354 767.26315308 551.91059875 C767.28390335 581.00898149 767.29458996 610.10734311 767.29057759 639.20573366 C767.29018228 642.3129154 767.28982073 645.42009715 767.28948021 648.5272789 C767.28934411 649.67476455 767.28934411 649.67476455 767.28920526 650.84543172 C767.28804287 662.3568239 767.29466031 673.86819463 767.30529213 685.37958145 C767.31738323 698.48383405 767.31885836 711.58803965 767.30650196 724.692293 C767.30048538 731.37057365 767.29946391 738.04875135 767.31150436 744.72703171 C767.32242365 750.85498246 767.31918846 756.98276564 767.30524268 763.11070876 C767.30261228 765.31315239 767.30490934 767.51560941 767.31297854 769.71803983 C767.38929617 792.12545304 764.55531158 813.57266467 758.92697144 835.26069641 C758.60454468 836.50665588 758.60454468 836.50665588 758.27560425 837.77778625 C744.76449554 888.72213861 712.4426793 938.6464521 669.92697144 970.26069641 C669.31128296 970.73104309 668.69559448 971.20138977 668.06124878 971.68598938 C626.40371312 1003.44998374 573.85563933 1024.50213494 521.01969624 1024.39212418 C519.61346987 1024.39520313 519.61346987 1024.39520313 518.17883489 1024.39834428 C515.05574844 1024.40397244 511.93270668 1024.40256224 508.80961609 1024.40113831 C506.54033679 1024.40372435 504.27105795 1024.40673818 502.00177974 1024.41014171 C495.7792963 1024.41818698 489.55682442 1024.4199999 483.3343364 1024.42073917 C477.30789898 1024.42240344 471.28146744 1024.42872454 465.25503331 1024.43481759 C449.117111 1024.45084514 432.97918967 1024.45677751 416.84126083 1024.46156633 C409.19887679 1024.46390588 401.5564935 1024.46750896 393.91411005 1024.47126171 C367.7265509 1024.48409533 341.53899216 1024.49481389 315.35142994 1024.49826431 C313.70880611 1024.49848594 312.06618228 1024.49870773 310.42355845 1024.49892966 C308.77708253 1024.4991503 307.13060661 1024.49937078 305.48413068 1024.49959111 C302.18130481 1024.50003365 298.87847894 1024.50048077 295.57565308 1024.50093079 C294.75674988 1024.50104018 293.93784668 1024.50114957 293.09412823 1024.50126227 C266.56238506 1024.50489003 240.03066926 1024.52080043 213.49893657 1024.54412115 C185.41392717 1024.56876177 157.3289334 1024.58243914 129.24391288 1024.58363223 C126.15599835 1024.58380367 123.06808382 1024.58401909 119.9801693 1024.58426666 C119.21989989 1024.58432243 118.45963048 1024.5843782 117.6763226 1024.58443566 C105.48317357 1024.58558252 93.29005279 1024.59657342 81.09691327 1024.61115372 C68.82147712 1024.62557764 56.54607688 1024.62872265 44.27063457 1024.62071374 C37.63075937 1024.616672 30.99095846 1024.6176624 24.35108948 1024.63177109 C18.25677504 1024.64460136 12.16262497 1024.64323321 6.06831046 1024.63118038 C3.8791269 1024.62923905 1.68993133 1024.63222815 -0.49923541 1024.64102474 C-15.57089313 1024.69768697 -30.16503121 1023.47195305 -45.07302856 1021.26069641 C-46.20522909 1021.09474601 -46.20522909 1021.09474601 -47.36030235 1020.92544308 C-68.77650017 1017.73820739 -89.54478416 1010.45168 -109.07302856 1001.26069641 C-110.12442017 1000.77415588 -110.12442017 1000.77415588 -111.197052 1000.27778625 C-129.03857364 991.9680954 -145.7402701 981.58671036 -161.07302856 969.26069641 C-161.93323608 968.57402893 -161.93323608 968.57402893 -162.81082153 967.87348938 C-177.53016343 956.01070851 -191.75090485 942.42929977 -203.07302856 927.26069641 C-203.71328979 926.41909973 -203.71328979 926.41909973 -204.3664856 925.5605011 C-210.79844 917.09988626 -216.73155305 908.45934802 -222.07302856 899.26069641 C-222.45813599 898.60794739 -222.84324341 897.95519836 -223.24002075 897.28266907 C-243.66085667 862.52190436 -257.28807876 821.01429864 -257.20445633 780.41120625 C-257.20650896 779.46782275 -257.2085616 778.52443926 -257.21067643 777.55246839 C-257.21631376 774.40330257 -257.21489323 771.25418094 -257.21347046 768.10501099 C-257.21605598 765.81938285 -257.21906966 763.53375517 -257.22247386 761.24812812 C-257.23052535 754.97584844 -257.2323324 748.70358022 -257.23307133 742.43129599 C-257.23473466 736.35821567 -257.24105504 730.28514166 -257.24714974 724.21206447 C-257.26318352 707.9471442 -257.26911042 691.68222489 -257.27389849 675.41729813 C-257.27623746 667.71568479 -257.27984048 660.01407219 -257.28359387 652.31245943 C-257.29642818 625.92526331 -257.30714657 599.53806759 -257.31059647 573.15086842 C-257.3108181 571.49545961 -257.31103988 569.8400508 -257.31126182 568.184642 C-257.31148245 566.52533441 -257.31170294 564.86602681 -257.31192327 563.20671922 C-257.31236581 559.87811331 -257.31281292 556.5495074 -257.31326294 553.22090149 C-257.31337233 552.39560527 -257.31348172 551.57030906 -257.31359443 550.72000386 C-257.31722226 523.98058073 -257.33313258 497.24118475 -257.3564533 470.50177201 C-257.38109015 442.20129702 -257.39477113 413.90083753 -257.39596438 385.60035151 C-257.39613582 382.48912886 -257.39635125 379.37790622 -257.39659882 376.26668358 C-257.39665458 375.50066764 -257.39671035 374.73465171 -257.39676781 373.94542317 C-257.39791502 361.65624897 -257.40890894 349.3671028 -257.42348587 337.07793805 C-257.43790495 324.70717958 -257.4410575 312.33645676 -257.43304589 299.9656922 C-257.42900228 293.27328085 -257.43000326 286.58097448 -257.44410324 279.88856888 C-257.45692283 273.74738988 -257.4555745 267.60637406 -257.44351253 261.46519502 C-257.44156938 259.25782992 -257.44456899 257.05045293 -257.45335689 254.84310446 C-257.53688762 232.42018366 -254.70526534 210.96374328 -249.07302856 189.26069641 C-248.85807739 188.43005676 -248.64312622 187.59941711 -248.42166138 186.74360657 C-239.70224783 153.86659508 -223.63993146 122.56098448 -202.07302856 96.26069641 C-201.64651001 95.73266418 -201.21999146 95.20463196 -200.7805481 94.66059875 C-188.44991943 79.45690189 -174.58845886 65.04606291 -158.74588013 53.49360657 C-157.0463154 52.24100851 -155.38315756 50.94973099 -153.72146606 49.64741516 C-109.81255902 15.69843879 -54.90928544 -0.10391845 0 0 Z " fill="#000000" transform="translate(257.0730285644531,-0.2606964111328125)"/>
<path d="M0 0 C12.16240153 6.96854925 22.23076305 19.7831088 32.04980469 29.58764648 C33.92311272 31.4546808 35.79660085 33.32153298 37.67027283 35.1882019 C43.2638943 40.76220315 48.8527985 46.34092238 54.44107759 51.92027888 C56.54992406 54.02560858 58.65908448 56.13062359 60.768261 58.23562263 C70.08005217 67.52897294 79.39049934 76.82366728 88.69692612 86.12238979 C90.96639819 88.3899524 93.23587574 90.65750953 95.50537109 92.92504883 C96.06934964 93.48854363 96.63332818 94.05203843 97.21439698 94.63260884 C106.3626946 103.77259534 115.51948747 112.90402143 124.67983374 122.0319308 C134.10520797 131.42420313 143.52300591 140.8240186 152.93344045 150.23125988 C158.20912221 155.50478111 163.48801774 160.77499308 168.77541351 166.03677177 C173.2741991 170.5138088 177.76604493 174.9976668 182.24911633 179.49044137 C184.53347456 181.7793302 186.82195235 184.06380453 189.11720848 186.34177208 C191.61127408 188.81810205 194.09259769 191.30655844 196.57122803 193.79832458 C197.64953735 194.86018003 197.64953735 194.86018003 198.74963069 195.94348711 C208.01632109 205.32866289 213.37406353 215.70053784 214.0390625 228.94140625 C213.7217502 239.78878609 209.74009046 248.17526188 202.39602661 255.96009827 C201.87987073 256.50843136 201.36371485 257.05676445 200.83191788 257.6217137 C193.04394 265.83694869 185.01285125 273.82001593 177.01513672 281.82983398 C175.17721875 283.67403029 173.3394859 285.51841111 171.50192261 287.36296082 C166.03147987 292.85296104 160.55637605 298.33830083 155.08061522 303.82299599 C153.01281517 305.8943178 150.94532679 307.96595055 148.87785294 310.03759794 C139.74501449 319.18886538 130.61083813 328.33879498 121.47263908 337.48470974 C119.24786299 339.71139513 117.02309248 341.9380861 114.79833984 344.16479492 C113.96910016 344.99476021 113.96910016 344.99476021 113.12310816 345.84149248 C104.14821218 354.82470682 95.18188231 363.81642108 86.21904765 372.81166779 C76.98940214 382.07441524 67.75221357 391.32958592 58.507599 400.57739407 C53.32801907 405.75913368 48.15174386 410.94408077 42.98391342 416.13754082 C38.12892001 421.01656049 33.26374581 425.88522178 28.39159012 430.74710274 C26.60878207 432.52941559 24.82937508 434.31513815 23.05369568 436.10455322 C20.62350673 438.55248227 18.18119159 440.98765819 15.73556519 443.42015076 C15.04138076 444.12530443 14.34719633 444.83045811 13.63197601 445.55698007 C4.03725186 455.02834084 -6.31248145 459.91761042 -19.8359375 460.44140625 C-30.00175286 460.26910429 -39.20491173 455.88586682 -46.75390625 449.22265625 C-54.91541488 440.77021204 -58.17746581 431.13649078 -58.5859375 419.5078125 C-58.24381058 401.35370259 -46.7601743 390.71422052 -34.60400391 378.7043457 C-32.96659704 377.0683509 -31.33029374 375.43125094 -29.69500732 373.7931366 C-25.27274253 369.36944246 -20.83527753 364.96129037 -16.39484453 360.55584359 C-11.74940249 355.94174485 -7.11819918 351.31339879 -2.48544312 346.68656921 C5.28527147 338.92877636 13.06547712 331.18059374 20.85205078 323.4387207 C28.86836018 315.46838275 36.87934421 307.4927534 44.88330078 299.51000977 C45.37756571 299.01705846 45.87183063 298.52410715 46.38107328 298.01621792 C48.86089146 295.54292545 51.34060612 293.06952921 53.82026935 290.59608138 C74.35634222 270.1117505 94.91066244 249.64579013 115.4765625 229.19140625 C114.19706032 226.38431193 112.87322887 224.34098022 110.68597794 222.1714859 C110.11441916 221.59964522 109.54286038 221.02780454 108.95398164 220.43863535 C108.32578452 219.82035663 107.6975874 219.20207791 107.050354 218.56506348 C106.38317596 217.90040998 105.71599792 217.23575648 105.02860236 216.55096197 C102.78709463 214.32022724 100.5385431 212.09672773 98.29003906 209.87304688 C96.68326525 208.27665792 95.07697395 206.67978319 93.47113037 205.0824585 C90.00881829 201.64004444 86.54362916 198.20056146 83.07636261 194.76313782 C77.589804 189.32268758 72.11299236 183.87249779 66.63812256 178.42028809 C64.76316826 176.55338665 62.8881871 174.68651218 61.01317978 172.819664 C60.31026798 172.11980988 60.31026798 172.11980988 59.59315594 171.4058173 C54.25947804 166.09562233 48.92367089 160.78756924 43.58691406 155.48046875 C43.09915811 154.99541766 42.61140215 154.51036657 42.10886571 154.01061696 C34.21673423 146.16278008 26.31692466 138.32270752 18.41512135 130.48461086 C10.29276942 122.42718237 2.18229039 114.35796027 -5.91884255 106.27919149 C-10.463742 101.74781135 -15.01412264 97.22225235 -19.57805634 92.71003723 C-23.87547189 88.46131512 -28.15864473 84.1987369 -32.43154144 79.92536163 C-33.9975983 78.36412844 -35.56877776 76.80801327 -37.14555359 75.25760651 C-48.92767731 63.66427501 -57.94878684 53.21964305 -58.65625 35.94921875 C-58.43886656 25.10420032 -54.65406245 15.45370264 -47.4609375 7.25390625 C-34.02342575 -4.83062949 -16.18625665 -7.0488537 0 0 Z " fill="#FEFEFE" transform="translate(306.5234375,283.80859375)"/>
<path d="M0 0 C0.81840412 -0.00322445 1.63680823 -0.00644889 2.48001248 -0.00977105 C3.82823217 -0.00744815 3.82823217 -0.00744815 5.20368862 -0.00507832 C6.15883104 -0.00734387 7.11397346 -0.00960943 8.09805959 -0.01194364 C11.31300451 -0.01829637 14.52790741 -0.01745344 17.74285793 -0.01662922 C20.04231731 -0.01962001 22.34177619 -0.02302236 24.6412344 -0.02680683 C30.89979574 -0.03566155 37.15834341 -0.03798563 43.41691041 -0.03862262 C48.64027979 -0.03957106 53.86364598 -0.04324881 59.08701414 -0.04679471 C70.70952419 -0.05447978 82.33202757 -0.05746283 93.95453996 -0.05678936 C94.65216048 -0.0567494 95.34978099 -0.05670945 96.06854153 -0.05666828 C96.76701639 -0.0566274 97.46549125 -0.05658652 98.18513202 -0.0565444 C109.49138802 -0.05613842 120.79761064 -0.06569488 132.10385699 -0.07980665 C143.7182706 -0.0941883 155.33266644 -0.10089286 166.94708914 -0.10021287 C173.46542823 -0.09995802 179.98372961 -0.10280207 186.50206089 -0.11339092 C192.63745483 -0.12308472 198.77277509 -0.12314222 204.90817165 -0.11587429 C207.15671744 -0.11482988 209.40526785 -0.1171828 211.65380573 -0.12323475 C214.73090352 -0.13097827 217.80774843 -0.12629408 220.88484097 -0.11860371 C221.76803904 -0.12374727 222.65123712 -0.12889083 223.56119877 -0.13419026 C235.33513137 -0.06947339 246.46407865 2.50089563 255.57464504 10.3591032 C262.44117126 17.53359654 267.45765441 26.03862502 267.98870754 36.12863445 C268.07378567 36.98715008 268.15886379 37.8456657 268.24652004 38.73019695 C268.89610805 49.4342776 265.040687 58.90266336 258.23870754 67.12863445 C249.52669882 76.09098826 238.8890745 80.06122361 226.51645851 80.26006222 C224.80053394 80.26810603 223.08457872 80.27076712 221.36863613 80.26907635 C220.41824312 80.27204747 219.4678501 80.27501859 218.4886573 80.27807975 C215.31377897 80.28673017 212.1389385 80.28827188 208.96404934 80.28976727 C206.68370388 80.29439795 204.40335919 80.29942295 202.1230154 80.30481243 C195.93493959 80.31791247 189.74687462 80.32437647 183.55878711 80.32882309 C179.69103809 80.33175709 175.82329201 80.33586248 171.95554447 80.34032726 C161.23490609 80.35243008 150.51427157 80.36281468 139.79362679 80.36620235 C138.76583885 80.3665317 138.76583885 80.3665317 137.71728753 80.36686771 C136.68713015 80.36719512 136.68713015 80.36719512 135.63616151 80.36752915 C134.24464365 80.36797261 132.85312579 80.36841917 131.46160793 80.36886883 C130.77137631 80.36909026 130.08114468 80.36931169 129.36999694 80.36953983 C118.18684348 80.37348754 107.00375518 80.39094382 95.82062688 80.41422835 C84.32360542 80.43797222 72.82662594 80.45014782 61.3295787 80.45157027 C54.88058128 80.45261768 48.4316759 80.4585123 41.9827013 80.47638988 C35.91617431 80.49288097 29.84980846 80.49502091 23.78326702 80.48625088 C21.56051546 80.48548112 19.33775519 80.48981505 17.11502552 80.49970913 C14.0730696 80.51245273 11.03168242 80.50653854 7.98972988 80.49612713 C7.11704218 80.50418353 6.24435448 80.51223994 5.3452217 80.52054048 C-5.86890136 80.43120644 -15.72514594 76.5646971 -24.20660496 69.23019695 C-31.3794758 61.89368648 -36.29789738 52.24163288 -36.51129246 41.87863445 C-36.39429171 39.95829602 -36.22989505 38.04007417 -36.01129246 36.12863445 C-35.88367527 34.85052898 -35.88367527 34.85052898 -35.75347996 33.5466032 C-34.42724796 24.58748282 -29.91659349 15.95249623 -23.27691746 9.76144695 C-16.91523594 5.17664889 -7.96676968 0.00793423 0 0 Z " fill="#FEFEFE" transform="translate(540.0112924575806,663.8713655471802)"/>
</svg>
